<svg xmlns="http://www.w3.org/2000/svg" xmlns:xlink="http://www.w3.org/1999/xlink" width="74" height="74" viewBox="0 0 74 74">
  <defs>
    <clipPath id="clip-path">
      <circle id="Ellipse_181" data-name="Ellipse 181" cx="37" cy="37" r="37" transform="translate(5199 456.438)" fill="#fff" stroke="#707070" stroke-width="1"/>
    </clipPath>
  </defs>
  <g id="Mask_Group_14" data-name="Mask Group 14" transform="translate(-5199 -456.438)" clip-path="url(#clip-path)">
    <g id="Group_14405" data-name="Group 14405" transform="translate(5194.145 417.266)">
      <path id="Path_13470" data-name="Path 13470" d="M3031.615,2288.546l.521.472a2.253,2.253,0,0,1,.6-1.358C3032.4,2286.8,3031.832,2287.959,3031.615,2288.546Z" transform="translate(-2952.934 -2213.779)" fill="red"/>
      <path id="Path_13471" data-name="Path 13471" d="M3256.873,1379.454c-.338,1.592.659,2.939-.25,4.461,1.141.138,1.813-1.823,2.458-2.356C3258.656,1380.28,3257.685,1378.734,3256.873,1379.454Z" transform="translate(-3161.217 -1350.561)" fill="red"/>
      <path id="Path_13472" data-name="Path 13472" d="M3090.2,2285.544l.125-1.863-1.007.293C3088.563,2285.414,3090.25,2284.514,3090.2,2285.544Z" transform="translate(-3006.166 -2210.323)" fill="red"/>
      <path id="Path_13473" data-name="Path 13473" d="M2051.491,916.4a2.791,2.791,0,0,0-1.14-4.371c.465.037,1.6.738,2.347.031-.131-.162-.234-.476-.388-.489.023-.15,1.03-1.446.332-1.961a.949.949,0,0,0-.722-.261c-2.345,1.61-7.161-2.774-9.781-4.391-.166-.225-.291-.453-.447-.678a5.021,5.021,0,0,0-1.125,2.539c.826-.24.414,1.258,1.314.564.026-.152-.1-.314-.078-.465l1.109-.984c.467.956-.821,2.994.625,3.721-.643,1.018-1.932,1.223-2.964,1.753-.435,1.647-2.007,3.511-1,4.966.027,1.685-1.417,1.876-2.575,2.244.489.8-.513,2.1.517,2.487-1.157,1.285-3.093,1.592-4.587,2.085-.954,1-.025,1.069.621,1.884-.668,2.089-3.019-.7-3.428,1.718a1.054,1.054,0,0,0-.106.624,1.326,1.326,0,0,1-.4-.2l-.106.605a1.357,1.357,0,0,0,1.005.611l.054.058c-5.014,14.081-4.508,29.483-5.843,44.138,0-6.183-.724-13.25.725-19.434,1.448-8.834.724-16.785,2.9-24.737.141-.429.3-.863.448-1.3-.828-.564-1.657-1.07-2.393-1.52-3.621-1.764-8.69-2.65-12.31.886v2.649a11.959,11.959,0,0,1-4.449-.061c-.776,5.714-1.377,11.43-2.038,17.143a93.916,93.916,0,0,1-3.153,21.069c1.44-7.02,2.341-14.045,3.153-21.069.316-5.726.4-11.517.651-17.325-1.719-.194-3.261-.144-4.3,1.125-2.172,1.768,0,7.952-.724,11.487-.45,1.508-.812,3.038-1.112,4.582q-.124-.4-.265-.788c-2.9-7.069-13.035-4.418-16.655,2.651h-2.9c1.448-7.069-5.793-3.535-9.414-4.417a20.424,20.424,0,0,1-1.138,6.948c-3.278-1.032-7.126-1.048-10.036,1.794v2.65a11.961,11.961,0,0,1-4.449-.061c-.776,5.713-1.377,11.43-2.038,17.143a93.894,93.894,0,0,1-3.153,21.069c1.44-7.02,2.341-14.045,3.153-21.069.316-5.726.4-11.517.651-17.325-1.719-.194-3.261-.144-4.3,1.125-2.172,1.768,0,7.952-.724,11.487-2.9,9.716-2.172,20.318-4.344,30.035-1.448,7.065-.724,14.133,0,21.2,1.448,9.716-1.448,20.318,1.448,28.267,2.9,7.069,13.035,4.418,16.655-2.651h2.9c-1.448,7.069,5.793,3.535,9.414,4.417a20.423,20.423,0,0,1,1.138-6.948c3.278,1.032,7.126,1.048,10.037-1.795v-2.65a11.956,11.956,0,0,1,4.449.061c.776-5.714,1.377-11.43,2.038-17.143a93.916,93.916,0,0,1,3.153-21.069c-1.44,7.02-2.341,14.045-3.153,21.069-.316,5.726-.4,11.516-.651,17.325,1.719.194,3.261.144,4.3-1.125,2.172-1.768,0-7.952.724-11.487.45-1.508.812-3.038,1.111-4.582q.124.4.266.788c2.9,7.069,13.034,4.418,16.655-2.651h2.9c-1.448,7.069,5.793,3.535,9.414,4.417a19.584,19.584,0,0,1,2.9-10.6v-3.533q0-4.8-.086-9.516c.1-.165.192-.319.262-.444a.694.694,0,0,0-.274-.241l-.015-.848a.217.217,0,0,0,.112-.243c.175-.494.081-.712-.132-.815q-.023-1.16-.047-2.317a1.882,1.882,0,0,1,.775.426c.254-.507,1.186-.7,1.089-1.437-1.565-2.117.906-2.769.67-4.546-.293.211-.662-.172-.994-.254,1.125-2.358,4.788,1.159,4.335-2.247a.939.939,0,0,0-.8-.826c.083-.159.224-.3.4.119,1.17-2.2-.41-.339-1.1-1.775l.6,1.645a1.224,1.224,0,0,0-.333.023c-.427.39-1.339.728-1.086,1.437-.488-.053-.659,1.045-1.558.314.6-1.49-1.114-2.36-.475-3.554l-.7-.466c.1-.474-.547-1.713.171-2.315.871-1.848,1.635.278,2.453.416l.756-1.523c-1.543-1.968,3.147-2.764,1.156-4.491l.507.2c.606.942,2.064-.113,2.139-.738l-.389-.528c-2.047-.955-.26-3.141-.634-4.738.117-.326.582-.422.622-.126l1.223-1.617c-2.005-.659.154-1.247.015-2.283-.74-.765-1.579-1.05-2.027-2.024,1.938-2.217-.029-3.8,2.108-5.749-1.5-.456-1.678-1.788-3.641-.934,1.312-2.11,3.375-3.918,4.243-6-.219-.168-.411-.345-.638-.51-3.056-.785-9.09-3.544-10.917-1.392a1.393,1.393,0,0,0,.46-.294,1.9,1.9,0,0,1,1.56,1.017c0,.024,0,.047-.007.071-.373.562-.223,1.825-1.04,1.545l-.019-.147a2.627,2.627,0,0,0-1.236.366c-.079-1.193-.21-2.391-.408-3.6h2.876q.121-1.746.271-3.5a12.945,12.945,0,0,0,7.3-.468,20.97,20.97,0,0,0,7.637-6.448,9.623,9.623,0,0,1-1.327-1.769l1.673-1.549c.283-1.66.149-3.659-1.682-4.874.359-.278.669-.253,1.029-.53-.517-.652.306-1.811-.674-2.5.745-.705,1.675-.632,2.682-1.012-.65-1.732,2.187-3.649.92-5.43C2052.76,919.1,2048.862,917.109,2051.491,916.4Zm-79.142,82.017c0-5.908-.659-12.622.546-18.6q.318,1.166.541,2.323C1973.079,987.6,1972.837,993.056,1972.349,998.416Zm4.565,13.946c-.212-.777-.39-1.552-.541-2.323.356-5.459.6-10.919,1.087-16.28C1977.459,999.667,1978.119,1006.382,1976.914,1012.362Zm52.844-60.078a1.817,1.817,0,0,1,1.576.416,2.842,2.842,0,0,1-1.258,2.535l1.312.745q-.01.107-.018.214c-.394.685-1.1.862-1.62,1.389l-.045-.041C2029.8,955.8,2029.834,954.048,2029.757,952.284Zm-.089,21.436c-.763.651-1.17.366-1.5-.145q.031-.557.071-1.114A13.991,13.991,0,0,1,2029.669,973.72Zm1.755-44.467q-.253-.246-.522-.483a1.505,1.505,0,0,0,.719.279A1.859,1.859,0,0,0,2031.424,929.254Z" transform="translate(-1945.672 -904.28)" fill="red"/>
    </g>
  </g>
</svg>
